HIERARCHY
ROOT Hips
{
	OFFSET 0.000000 0.000000 0.000000
	CHANNELS 6 Xposition Yposition Zposition Zrotation Yrotation Xrotation 
	JOINT LHipJoint
	{
		OFFSET 0.000000 0.000000 0.000000
		CHANNELS 3 Zrotation Yrotation Xrotation
		JOINT LeftUpLeg
		{
			OFFSET 1.363060 -1.794630 0.839290
			CHANNELS 3 Zrotation Yrotation Xrotation
			JOINT LeftLeg
			{
				OFFSET 2.448110 -6.726130 0.000000
				CHANNELS 3 Zrotation Yrotation Xrotation
				JOINT LeftFoot
				{
					OFFSET 2.562200 -7.039590 0.000000
					CHANNELS 3 Zrotation Yrotation Xrotation
					JOINT LeftToeBase
					{
						OFFSET 0.157640 -0.433110 2.322550
						CHANNELS 3 Zrotation Yrotation Xrotation
						End Site
						{
							OFFSET 0.000000 0.000000 0.000000
						}
					}
				}
			}
		}
	}
	JOINT RHipJoint
	{
		OFFSET 0.000000 0.000000 0.000000
		CHANNELS 3 Zrotation Yrotation Xrotation
		JOINT RightUpLeg
		{
			OFFSET -1.305520 -1.794630 0.839290
			CHANNELS 3 Zrotation Yrotation Xrotation
			JOINT RightLeg
			{
				OFFSET -2.542530 -6.985550 0.000000
				CHANNELS 3 Zrotation Yrotation Xrotation
				JOINT RightFoot
				{
					OFFSET -2.568260 -7.056230 0.000000
					CHANNELS 3 Zrotation Yrotation Xrotation
					JOINT RightToeBase
					{
						OFFSET -0.164730 -0.452590 2.363150
						CHANNELS 3 Zrotation Yrotation Xrotation
						End Site
						{
							OFFSET 0.000000 0.000000 0.000000
						}
					}
				}
			}
		}
	}
	JOINT LowerBack
	{
		OFFSET 0.000000 0.000000 0.000000
		CHANNELS 3 Zrotation Yrotation Xrotation
		JOINT Spine
		{
			OFFSET 0.028270 2.035590 -0.193380
			CHANNELS 3 Zrotation Yrotation Xrotation
			JOINT Spine1
			{
				OFFSET 0.056720 2.048850 -0.042750
				CHANNELS 3 Zrotation Yrotation Xrotation
				JOINT Neck
				{
					OFFSET 0.000000 0.000000 0.000000
					CHANNELS 3 Zrotation Yrotation Xrotation
					JOINT Neck1
					{
						OFFSET -0.054170 1.746240 0.172020
						CHANNELS 3 Zrotation Yrotation Xrotation
						JOINT Head
						{
							OFFSET 0.104070 1.761360 -0.123970
							CHANNELS 3 Zrotation Yrotation Xrotation
							End Site
							{
								OFFSET 0.000000 0.000000 0.000000
							}
						}
					}
				}
				JOINT LeftShoulder
				{
					OFFSET 0.000000 0.000000 0.000000
					CHANNELS 3 Zrotation Yrotation Xrotation
					JOINT LeftArm
					{
						OFFSET 3.362410 1.200890 -0.311210
						CHANNELS 3 Zrotation Yrotation Xrotation
						JOINT LeftForeArm
						{
							OFFSET 4.983000 -0.000000 -0.000000
							CHANNELS 3 Zrotation Yrotation Xrotation
							JOINT LeftHand
							{
								OFFSET 3.483560 -0.000000 -0.000000
								CHANNELS 3 Zrotation Yrotation Xrotation
								JOINT LeftFingerBase
								{
									OFFSET 0.000000 0.000000 0.000000
									CHANNELS 3 Zrotation Yrotation Xrotation
									JOINT LeftHandIndex1
									{
										OFFSET 0.715260 -0.000000 -0.000000
										CHANNELS 3 Zrotation Yrotation Xrotation
										End Site
										{
											OFFSET 0.000000 0.000000 0.000000
										}
									}
								}
								JOINT LThumb
								{
									OFFSET 0.000000 0.000000 0.000000
									CHANNELS 3 Zrotation Yrotation Xrotation
									End Site
									{
										OFFSET 0.000000 0.000000 0.000000
									}
								}
							}
						}
					}
				}
				JOINT RightShoulder
				{
					OFFSET 0.000000 0.000000 0.000000
					CHANNELS 3 Zrotation Yrotation Xrotation
					JOINT RightArm
					{
						OFFSET -3.136600 1.374050 -0.404650
						CHANNELS 3 Zrotation Yrotation Xrotation
						JOINT RightForeArm
						{
							OFFSET -5.241900 -0.000000 -0.000000
							CHANNELS 3 Zrotation Yrotation Xrotation
							JOINT RightHand
							{
								OFFSET -3.444170 -0.000000 -0.000000
								CHANNELS 3 Zrotation Yrotation Xrotation
								JOINT RightFingerBase
								{
									OFFSET 0.000000 0.000000 0.000000
									CHANNELS 3 Zrotation Yrotation Xrotation
									JOINT RightHandIndex1
									{
										OFFSET -0.622530 -0.000000 -0.000000
										CHANNELS 3 Zrotation Yrotation Xrotation
										End Site
										{
											OFFSET 0.000000 0.000000 0.000000
										}
									}
								}
								JOINT RThumb
								{
									OFFSET 0.000000 0.000000 0.000000
									CHANNELS 3 Zrotation Yrotation Xrotation
									End Site
									{
										OFFSET 0.000000 0.000000 0.000000
									}
								}
							}
						}
					}
				}
			}
		}
	}
}
MOTION
Frames: 12
Frame Time: 0.008333
-0.714684 18.291538 6.154795 -0.588407 -1.445950 -0.635831 0.456010 3.758351 3.365618 -13.154021 -9.655347 -1.503745 0.725426 6.617415 21.770421 -0.377843 4.976565 -12.651416 8.492800 -16.470000 -54.318900 -3.553571 -4.144516 2.176723 17.002077 1.273290 9.474506 0.544853 0.907165 1.754437 0.135233 -5.311875 -15.339550 -0.055700 1.522300 -4.187100 4.326494 0.985513 -2.057617 -6.059610 0.944388 17.479356 -0.422834 0.985193 -14.594611 -0.494050 -1.871890 -22.485154 5.163274 -2.711642 24.874444 0.836100 -0.590000 8.071700 3.018269 -7.429098 0.490235 -94.364017 11.095981 20.344190 25.486143 -34.625974 -6.893892 0.507892 0.081721 10.189080 4.914855 -26.374156 -1.984300 -7.125000 0.000000 0.000000 -15.258700 4.130300 14.659700 -3.203939 9.217046 2.970557 97.601433 -12.960249 18.215493 -32.285670 40.484157 -9.415662 1.173453 -3.165678 18.274253 -1.464935 -34.267075 1.921500 7.125000 0.000000 0.000000 31.567200 -58.729700 -11.305500 
-0.715667 18.289769 6.155483 -0.567432 -1.446772 -0.814067 0.454910 3.787007 3.432015 -13.163001 -9.518202 -1.442476 0.736182 6.609771 21.784038 -0.358769 4.867694 -12.552053 8.483100 -16.463400 -54.284900 -3.549387 -4.161455 2.240265 16.958681 1.250759 9.584443 0.544224 0.914958 1.757326 0.137105 -5.307736 -15.320576 -0.057700 1.550600 -4.265100 4.295479 0.977908 -2.097624 -6.057172 0.963107 18.187077 -0.395301 0.994088 -14.773022 -0.395414 -1.828653 -22.487713 5.130700 -2.656062 24.358188 0.825400 -0.578900 7.972100 3.083510 -7.399203 0.417143 -94.656216 10.834974 18.804239 25.595790 -34.792773 -6.968429 0.503025 0.085581 8.715746 4.174703 -26.562070 -1.662500 -7.125000 0.000000 0.000000 -15.692200 4.024900 15.142100 -3.272406 9.186246 2.921369 97.642793 -13.046405 17.938828 -32.824418 40.932272 -9.623966 1.295841 -3.118045 17.104474 -0.380720 -33.840140 1.361900 7.125000 0.000000 0.000000 32.258100 -58.197000 -11.164400 
-0.714880 18.286721 6.160890 -0.646503 -1.527329 -1.119137 0.467791 3.838348 3.537754 -13.123692 -9.453333 -1.237591 0.749608 6.612577 21.845483 -0.365198 4.904115 -12.619995 8.481100 -16.462000 -54.277600 -3.528769 -4.183166 2.340660 16.994426 1.275629 9.819233 0.544640 0.928028 1.762036 0.140685 -5.329656 -15.338779 -0.062500 1.613600 -4.438900 4.341342 0.991315 -2.235272 -5.888523 1.018366 19.324782 -0.507721 1.003675 -15.022317 -0.473678 -1.833457 -22.731442 5.371457 -2.680636 23.846572 0.876300 -0.579600 7.915400 3.187556 -7.353374 0.307995 -95.040094 10.392162 16.280323 25.720647 -34.991556 -7.039271 0.469511 0.052877 7.373754 1.945637 -26.677071 -0.670500 -7.125000 0.000000 0.000000 -16.975000 4.141900 16.458000 -3.379523 9.136957 2.852915 97.814995 -13.129373 16.987498 -33.748664 41.710767 -10.040012 1.464608 -3.045806 15.867330 1.473728 -33.526652 0.439500 7.125000 0.000000 0.000000 33.792800 -57.649500 -11.318800 
-0.712619 18.282395 6.168559 -0.704733 -1.657619 -1.489523 0.458205 3.898144 3.661296 -13.120345 -9.476649 -0.907502 0.755583 6.611308 21.894044 -0.387040 5.042945 -12.829241 8.478700 -16.460300 -54.269400 -3.529252 -4.205133 2.444660 17.023054 1.324367 10.134099 0.544865 0.944279 1.768306 0.140391 -5.328014 -15.353705 -0.063600 1.627300 -4.476800 4.523065 1.032243 -2.367297 -5.914370 1.138034 20.602610 -0.643171 1.027308 -15.278702 -0.622406 -1.857808 -22.969579 5.785760 -2.745246 23.096305 0.961800 -0.591600 7.818100 3.340214 -7.301356 0.186601 -95.354446 9.891781 13.272584 26.326915 -35.652095 -7.312035 0.379506 0.025294 6.196610 -1.513632 -25.333965 0.810000 -7.125000 0.000000 0.000000 -18.969500 5.679800 18.041100 -3.473114 9.055918 2.759537 98.107059 -13.044360 14.885071 -35.217713 42.889989 -10.716450 1.879512 -2.862514 12.760956 6.883223 -33.364574 -2.250500 7.125000 0.000000 0.000000 38.795500 -56.661000 -12.368500 
-0.713602 18.280821 6.170329 -0.761849 -1.673686 -1.720992 0.463826 3.939119 3.741464 -13.071110 -9.427417 -0.780898 0.764464 6.614692 21.937586 -0.397122 5.088317 -12.869963 8.514000 -16.484600 -54.393600 -3.519313 -4.218555 2.515330 17.062644 1.288673 10.311534 0.544629 0.955351 1.772768 0.143603 -5.335109 -15.343759 -0.059300 1.571700 -4.323300 4.592119 1.054108 -2.321977 -5.798711 1.209708 21.456187 -0.789632 1.046023 -15.507759 -1.006862 -1.945535 -23.006388 6.457142 -2.893367 22.164227 1.118300 -0.638600 7.652100 3.439458 -7.263431 0.094866 -95.346067 9.355369 10.334919 27.207305 -36.523518 -7.713249 0.253406 0.015712 4.860061 -5.049188 -22.714028 2.054000 -7.125000 0.000000 0.000000 -21.108100 8.303700 19.228900 -3.526006 8.970192 2.682230 98.233202 -13.000483 12.670356 -36.376770 43.749674 -11.294546 1.999905 -2.727278 10.480340 7.712206 -32.782026 -2.646400 7.125000 0.000000 0.000000 39.103700 -56.084800 -11.915200 
-0.715667 18.282198 6.171312 -0.839273 -1.641511 -1.853337 0.498384 3.966132 3.789881 -13.015428 -9.391971 -0.746263 0.773870 6.618151 21.978047 -0.409724 5.119710 -12.831593 8.549300 -16.508800 -54.518100 -3.482305 -4.229064 2.572114 17.102170 1.234856 10.392655 0.544749 0.961053 1.774724 0.154107 -5.381925 -15.332628 -0.059800 1.577400 -4.339200 4.493422 1.075348 -2.237745 -5.404948 1.231177 22.031690 -0.919058 1.068792 -15.693330 -1.371020 -2.043612 -22.857100 6.896932 -3.010929 21.181197 1.233100 -0.703500 7.443900 3.465396 -7.220883 0.012022 -94.943477 8.643996 7.218714 27.603474 -36.880700 -7.903206 0.151648 -0.031874 4.043065 -8.234647 -21.111239 3.036000 -7.125000 0.000000 0.000000 -23.050900 9.892800 20.532200 -3.591891 8.885702 2.628364 97.921664 -13.020017 10.498588 -37.209047 44.307991 -11.776411 2.212625 -2.581513 8.002893 10.870167 -33.498851 -4.337800 7.125000 0.000000 0.000000 42.692800 -56.135400 -13.368400 
-0.712816 18.281411 6.181734 -0.878821 -1.778592 -2.066336 0.499541 3.999164 3.857933 -13.058417 -9.477159 -0.506721 0.776636 6.622849 22.026077 -0.441117 5.293919 -13.023221 8.536700 -16.500200 -54.473700 -3.476390 -4.241834 2.633320 17.107340 1.324900 10.593276 0.546072 0.969326 1.777082 0.168373 -5.451181 -15.331173 -0.070900 1.718400 -4.728000 4.601345 1.162612 -2.301851 -5.328762 1.366277 22.756163 -0.992545 1.125585 -15.816921 -1.238622 -2.050344 -22.711251 6.639210 -2.978307 20.346243 1.167600 -0.740500 7.266900 3.524061 -7.168389 -0.082802 -94.110810 7.783888 4.053444 27.968735 -37.171641 -8.066293 0.064189 0.049277 3.470138 -7.981015 -17.857682 2.487800 -7.125000 0.000000 0.000000 -23.195800 12.841200 19.136600 -3.701302 8.808973 2.573858 97.298856 -13.059549 8.568915 -37.668232 44.625453 -12.196134 2.329508 -2.534918 4.217008 11.676296 -36.212634 -5.138500 7.125000 0.000000 0.000000 46.106200 -57.928000 -16.905600 
-0.713504 18.283574 6.184192 -0.870951 -1.765958 -2.081823 0.471075 4.012087 3.897022 -13.042894 -9.509916 -0.566219 0.783463 6.637433 22.070355 -0.451121 5.326239 -13.003229 8.534600 -16.498700 -54.466400 -3.500683 -4.248768 2.661962 17.119672 1.312014 10.575992 0.547571 0.975797 1.779069 0.175998 -5.498763 -15.352371 -0.076500 1.784500 -4.910400 4.794877 1.202500 -2.341347 -5.587357 1.463492 23.156055 -0.967204 1.151979 -15.899427 -1.047651 -2.046547 -22.740412 6.451865 -2.969628 19.867076 1.113500 -0.764900 7.179800 3.605298 -7.120621 -0.128924 -92.695854 6.996114 0.890874 27.905020 -37.008973 -8.030518 0.043494 0.090264 3.814166 -7.251055 -16.756770 2.123100 -7.125000 0.000000 0.000000 -22.867000 13.826700 18.289600 -3.747986 8.736908 2.534086 96.295551 -13.017184 6.237836 -37.776616 44.554536 -12.338717 2.475210 -2.434918 2.903196 15.026560 -37.334400 -7.246700 7.125000 0.000000 0.000000 50.417900 -58.107600 -19.286400 
-0.730022 18.298617 6.152927 -0.864659 -1.091056 -1.508897 0.478066 3.966163 3.829670 -12.771145 -9.422093 -1.557341 0.809675 6.669333 22.102053 -0.379300 4.812134 -12.194315 8.564300 -16.519000 -54.570600 -3.493374 -4.242226 2.622541 17.203599 0.801207 9.841277 0.547423 0.969978 1.777171 0.180092 -5.528555 -15.357416 -0.064800 1.642400 -4.518400 4.595352 1.004002 -2.081591 -5.629446 1.184479 22.533490 -0.765558 1.047162 -15.989888 -1.031828 -2.056869 -22.915462 6.504614 -3.003657 19.699967 1.136200 -0.784200 7.141400 3.547016 -7.069237 -0.069048 -90.523841 6.445731 -1.879962 27.442952 -36.389271 -7.799609 0.110180 0.059445 4.092068 -6.763853 -18.508394 2.197300 -7.125000 0.000000 0.000000 -22.417800 12.223500 18.689700 -3.652157 8.676864 2.563424 94.721896 -12.962797 4.326075 -37.543868 44.138373 -12.261097 2.471013 -2.413893 1.977485 15.173697 -38.206438 -7.512300 7.125000 0.000000 0.000000 51.576400 -58.651900 -20.604300 
-0.733168 18.302353 6.151058 -0.919530 -1.091029 -1.458461 0.489420 3.983454 3.878552 -12.719222 -9.538664 -1.670653 0.813257 6.678087 22.142338 -0.399551 4.904808 -12.260463 8.551200 -16.510100 -54.524600 -3.471859 -4.254958 2.681580 17.250685 0.840098 9.716276 0.548057 0.974923 1.776992 0.189760 -5.559713 -15.325819 -0.064000 1.632800 -4.492000 4.571266 1.007735 -2.249965 -5.466975 1.178375 23.123488 -0.799728 1.045402 -16.087151 -1.105339 -2.064022 -23.176996 6.572359 -2.998329 19.301077 1.168700 -0.792900 7.104500 3.593993 -7.003590 -0.091311 -87.916901 6.076770 -2.997855 27.598499 -36.359681 -7.835879 0.093516 0.088913 3.904308 -6.518128 -17.295358 1.982000 -7.125000 0.000000 0.000000 -22.388700 13.324700 18.095700 -3.758259 8.582838 2.491502 92.795353 -12.779329 2.768830 -37.191812 43.598603 -12.051092 2.364234 -2.433029 1.590149 12.748323 -38.202267 -6.092200 7.125000 0.000000 0.000000 49.395200 -59.100700 -19.978900 
-0.740935 18.303337 6.149682 -0.981103 -0.967806 -1.515099 0.529628 4.007021 3.931148 -12.646857 -9.560692 -1.716467 0.822589 6.673294 22.163612 -0.392329 4.845006 -12.180798 8.553400 -16.511600 -54.532300 -3.424120 -4.272603 2.752763 17.284390 0.724744 9.696402 0.546203 0.979687 1.779087 0.175802 -5.485270 -15.325347 -0.059800 1.577500 -4.339500 4.356967 0.966595 -2.275592 -5.046526 1.088851 23.769379 -0.833331 1.028217 -16.287488 -1.437885 -2.104300 -23.502396 6.900173 -3.027544 18.933909 1.284600 -0.804100 7.079600 3.621743 -6.928911 -0.112442 -85.097618 5.791170 -4.048149 27.573274 -36.153108 -7.788271 0.109638 0.073678 4.109961 -6.629620 -17.556670 2.048500 -7.125000 0.000000 0.000000 -22.438800 13.095400 18.262400 -3.862671 8.478079 2.435952 90.531483 -12.783457 1.528887 -37.091418 43.215115 -11.967066 2.284376 -2.421027 1.272474 11.230136 -38.254512 -5.234500 7.125000 0.000000 0.000000 48.118000 -59.433900 -19.692300 
-0.754503 18.302747 6.151452 -1.089364 -0.762247 -1.606809 0.604310 4.033253 3.984789 -12.514031 -9.524034 -1.726154 0.832655 6.649308 22.147183 -0.358774 4.656907 -12.028111 8.556300 -16.513600 -54.542600 -3.342218 -4.297143 2.839854 17.351865 0.517255 9.721429 0.543180 0.982995 1.781931 0.142370 -5.338568 -15.377904 -0.051900 1.470200 -4.043700 3.938959 0.906282 -2.303640 -4.296520 0.920362 24.475812 -0.871589 1.004327 -16.496584 -1.840733 -2.148244 -23.798139 7.239618 -3.038250 18.429359 1.416800 -0.814000 7.021700 3.606777 -6.846950 -0.144453 -82.256214 5.512027 -5.471828 27.432340 -35.835104 -7.692141 0.148760 0.018774 4.420390 -7.272879 -19.028130 2.434200 -7.125000 0.000000 0.000000 -22.695000 11.778600 19.194600 -3.989366 8.381157 2.389956 88.107835 -12.957149 0.410595 -37.307331 43.045726 -12.023459 2.261496 -2.356488 0.815147 11.031641 -38.138224 -5.132300 7.125000 0.000000 0.000000 47.882800 -59.411900 -19.540700 
